<svg id="Layer_1" enable-background="new 0 0 512 512" height="512" viewBox="0 0 512 512" width="512" xmlns="http://www.w3.org/2000/svg"><g><path d="m11.942 245.566 22.508 126.135c29.084 61.433 82.954 108.842 148.711 129.29h145.677c65.757-20.447 119.627-67.856 148.711-129.29l22.509-126.134c-10.859-125.273-115.97-223.571-244.058-223.571s-233.2 98.298-244.058 223.57z" fill="#47354f"/><path d="m156.804 93.331c.18 5.007 3.086 9.526 8.64 13.441l1.914 26.415c-.976 1.692-4.064 7.809-2.07 14.381 1.554 5.116 5.762 9.175 12.511 12.063 17.986 7.7 57.836 74.899 63.595 84.734-2.239 1.672-6.809 5.738-7.345 11.406-.007.076 0 .151-.006.227h11.526v-167.019c0-6.202-5.027-11.229-11.229-11.229h-69.73c-2.618 2.445-8.063 8.418-7.806 15.581z" fill="#ffdd40"/><path d="m166.888 77.75h-105.414c-6.202 0-11.229 5.027-11.229 11.229v167.021h185.3c.583-6.765 7.843-11.189 7.843-11.189s-45-77.997-65-86.559-9.5-24.699-9.5-24.699l-2-27.608c-19.334-13.034 0-28.195 0-28.195z" fill="#ffc839"/><path d="m430.82 158.253h-187.252s-20.987 18.807 0 35.268 0 24.938 0 24.938-17.369 11.164-2.18 26.353c3.789 3.789 6.432 7.601 7.467 11.189h192.099v-87.615c-.001-5.597-4.538-10.133-10.134-10.133z" fill="#deeeff"/><path d="m245.568 158.253h-103.243c-5.596 0-10.133 4.537-10.133 10.133v87.614h118.662c-1.034-3.588-3.677-7.4-7.467-11.189-15.189-15.189 2.18-26.353 2.18-26.353s20.987-8.477 0-24.938c-20.986-16.461.001-35.267.001-35.267z" fill="#d3dcfb"/><path d="m256 346.132c-6.331 0-12.514.627-18.497 1.813-.362 3.435-.161 7.488 1.516 11.49 2.466 5.884 7.557 10.318 15.141 13.196-.92 3.46-2.659 12.493 1.775 19.67 2.896 4.69 7.839 7.648 14.702 8.805v69.365l18.627 18.384c-1.28 2.547-4.032 9.224-1.32 15.246.92 2.043 2.368 3.785 4.324 5.225 12.523-1.859 24.74-4.658 36.57-8.336 13.565-16.367 21.72-37.38 21.72-60.299.001-52.223-42.335-94.559-94.558-94.559z" fill="#49b1f7"/><path d="m291.119 488.579-18.982-18.734v-70.03c-24.75-3.25-16.138-28.113-16.138-28.113-16.044-5.493-17.871-16.485-16.942-24.053-44.138 7.985-77.616 46.603-77.616 93.043 0 22.919 8.156 43.932 21.72 60.299 23.011 7.155 47.475 11.009 72.839 11.009 13.091 0 25.939-1.035 38.474-3.012-11.557-6.854-3.355-20.409-3.355-20.409z" fill="#1e9ef4"/><path d="m500.058 245.566c-1.585-.49-3.269-.755-5.015-.755h-254.224c-2.365 1.883-6.277 5.74-6.771 10.961-.402 4.26 1.539 8.441 5.771 12.437l-.087 71.114c-.817 1.861-4.478 11.127-.712 20.111 2.215 5.285 6.555 9.397 12.91 12.266h225.62c15.032-31.75 23.452-67.241 23.452-104.703 0-7.222-.331-14.367-.944-21.431z" fill="#ff4155"/><path d="m243.388 244.811h-226.432c-1.746 0-3.43.265-5.015.755-.612 7.064-.944 14.208-.944 21.432 0 37.462 8.421 72.953 23.452 104.703h221.551c-25.888-8.863-14.768-32.052-14.768-32.052l.088-72.095c-14.214-12.844 2.068-22.743 2.068-22.743z" fill="#e80054"/><g><g><path d="m65.906 348.958c-4.418 0-8-3.582-8-8v-65.281c0-3.501 2.276-6.596 5.619-7.638 3.343-1.041 6.975.211 8.964 3.092l31.029 44.933-.392-40.432c-.042-4.418 3.505-8.034 7.923-8.077h.079c4.382 0 7.955 3.53 7.998 7.923l.611 63.199c0 4.406-2.457 7.971-6.261 9.158-3.725 1.164-7.654-.287-10.013-3.693l-29.557-42.802v39.618c0 4.418-3.582 8-8 8z" fill="#deeeff"/></g></g><g><g><path d="m42.245 348.958c-4.418 0-8-3.582-8-8v-65.403c0-4.418 3.582-8 8-8s8 3.582 8 8v65.403c0 4.418-3.582 8-8 8z" fill="#deeeff"/></g></g><g><g><path d="m132.192 346.96c-4.418 0-8-3.582-8-8v-62.372c0-4.418 3.582-8 8-8s8 3.582 8 8v62.372c0 4.418-3.582 8-8 8z" fill="#deeeff"/></g><g><path d="m132.321 347.991c-4.41 0-7.984-3.57-8-7.971-.16-79.014-.123-60.659-.129-63.484-.008-4.422 3.578-8.015 8-8.015h17.976c20.115 0 33.631 15.968 33.631 39.734 0 22.608-13.863 39.26-32.965 39.595-5.122.089-17.938.139-18.482.141-.01 0-.021 0-.031 0zm7.886-63.47c.054 33.112.011 24.205.087 47.429 3.751-.023 7.903-.057 10.262-.098 11.911-.208 17.243-12.002 17.243-23.597 0-11.474-4.632-23.734-17.631-23.734z" fill="#deeeff"/></g></g><g><g><path d="m280.195 348.958c-10.99 0-21.727-4.607-28.72-12.322-2.967-3.273-2.719-8.333.556-11.3 3.274-2.967 8.333-2.721 11.3.556 4.011 4.425 10.315 7.066 16.864 7.066 6.412 0 10.932-3.854 11.598-7.581.892-4.992-5.778-8.026-8.688-9.1-10.138-3.739-19.14-7.746-19.518-7.915-.386-.172-.757-.374-1.11-.604-6.839-4.458-10.361-12.277-9.194-20.406 1.244-8.668 7.585-15.729 16.548-18.43 17.775-5.356 32.415 6.716 33.03 7.232 3.382 2.843 3.819 7.889.977 11.271-2.832 3.369-7.85 3.814-11.23 1.011-.229-.184-8.848-7.002-18.161-4.193-4.295 1.294-5.155 4.195-5.326 5.383-.124.865-.185 2.945 1.683 4.433 2.272.995 9.776 4.234 17.84 7.208 16.4 6.05 20.517 17.875 18.901 26.924-2.151 12.032-13.652 20.767-27.35 20.767z" fill="#deeeff"/></g></g><g><g><path d="m449.034 315.548c-2.702 0-5.221-1.363-6.698-3.626l-20.892-31.994c-2.416-3.699-1.375-8.657 2.324-11.072 3.699-2.418 8.657-1.375 11.072 2.324l14.183 21.72 14.026-21.545c2.41-3.702 7.364-4.751 11.068-2.341 3.703 2.411 4.751 7.367 2.34 11.069l-20.72 31.829c-1.475 2.267-3.994 3.634-6.698 3.636.001 0-.003 0-.005 0z" fill="#deeeff"/></g><g><path d="m448.953 348.958s-.013 0-.02 0c-4.418-.011-7.991-3.602-7.98-8.02l.081-33.409c.011-4.411 3.591-7.98 8-7.98h.013c4.425.011 7.998 3.602 7.987 8.02l-.081 33.409c-.011 4.41-3.591 7.98-8 7.98z" fill="#deeeff"/></g></g><g><g><path d="m201.825 344.252c-9.259-5.917-13.953-13.888-13.953-23.692v-45.005c0-4.418 3.582-8 8-8s8 3.582 8 8v45.005c0 3.609 1.117 6.727 6.568 10.21 4.416 2.822 10.513 2.81 14.952.572 7.026-3.538 7.927-7.646 7.927-10.83v-44.957c0-4.418 3.582-8 8-8s8 3.582 8 8v44.957c0 7.616-2.902 18.156-16.729 25.119-9.279 4.675-21.395 4.608-30.765-1.379z" fill="#deeeff"/></g></g><g><g><path d="m353.57 283.554h-36.12c-4.418 0-8-3.582-8-8s3.582-8 8-8h36.12c4.418 0 8 3.582 8 8s-3.582 8-8 8z" fill="#deeeff"/></g><g><path d="m335.437 348.958c-4.418 0-8-3.582-8-8v-63.315c0-4.418 3.582-8 8-8s8 3.582 8 8v63.315c0 4.418-3.582 8-8 8z" fill="#deeeff"/></g></g><g><g><path d="m404.631 346.243-27.474-31.216c-2.92-3.316-2.598-8.371.72-11.29 3.315-2.919 8.372-2.597 11.29.72l27.474 31.216c2.92 3.316 2.598 8.371-.72 11.29-3.308 2.912-8.365 2.605-11.29-.72z" fill="#deeeff"/></g><g><path d="m375.274 348.958c-4.418 0-8-3.582-8-8v-65.403c0-4.418 3.582-8 8-8s8 3.582 8 8v65.403c0 4.418-3.582 8-8 8z" fill="#deeeff"/></g><g><path d="m375.416 317.625c-4.395 0-7.971-3.549-7.999-7.949 0 0-.078-12.378-.078-17.124 0-3.88-.043-16.971-.043-16.971-.007-2.126.833-4.168 2.334-5.674s3.54-2.353 5.666-2.353h17.38c14.314 0 25.96 11.214 25.96 24.997 0 13.784-11.646 24.998-25.96 24.998-4.811 0-17.21.075-17.21.075-.017.001-.033.001-.05.001zm7.904-34.071c.01 3.505.019 7.217.019 8.997 0 2.095.016 5.686.032 9.03 3.428-.017 7.134-.032 9.305-.032 5.398 0 9.96-4.12 9.96-8.998 0-4.877-4.562-8.997-9.96-8.997z" fill="#deeeff"/></g></g><g><g><path d="m230.433 487.03c-.025 0-.049 0-.074 0-4.631-.04-8.353-3.827-8.313-8.459.037-4.271.075-9.006.111-13.945h-29.516c-6.373 0-10.423-6.853-7.343-12.437 6.006-10.887 25.937-46.818 30.246-52.102 3.926-4.818 9.267-6.771 14.285-5.214 5.059 1.566 8.651 6.445 9.15 12.43.225 2.708.17 22.301.064 40.551h1.264c4.631 0 8.386 3.755 8.386 8.386s-3.755 8.386-8.386 8.386h-1.376c-.047 6.345-.09 11.463-.113 14.09-.039 4.607-3.786 8.314-8.385 8.314zm-23.542-39.175h15.377c.058-10.13.099-19.898.099-27.178-4.118 7.027-9.728 16.896-15.476 27.178z" fill="#deeeff"/></g></g><g><g><path d="m291.119 488.579c-16.727 0-30.336-13.609-30.336-30.336v-35.104c0-16.727 13.609-30.336 30.336-30.336s30.336 13.609 30.336 30.336v35.104c0 16.727-13.609 30.336-30.336 30.336zm0-79.004c-7.479 0-13.564 6.085-13.564 13.564v35.104c0 7.479 6.085 13.564 13.564 13.564s13.564-6.085 13.564-13.564v-35.104c0-7.479-6.085-13.564-13.564-13.564z" fill="#deeeff"/></g></g><g><path d="m253.954 487.03c-4.631 0-8.386-3.755-8.386-8.386v-.413c0-4.631 3.755-8.386 8.386-8.386s8.386 3.755 8.386 8.386v.413c0 4.631-3.755 8.386-8.386 8.386z" fill="#deeeff"/></g><path d="m205.502 133.554h-115.191c-7.592 0-13.804-6.212-13.804-13.804 0-7.592 6.212-13.804 13.804-13.804h115.19c7.592 0 13.804 6.212 13.804 13.804 0 7.592-6.211 13.804-13.803 13.804z" fill="#ffb332"/><g fill="#bec8f7"><path d="m208.273 205.989c0-6.858-5.611-12.469-12.469-12.469h-20.363c-6.858 0-12.469 5.611-12.469 12.469s5.611 12.469 12.469 12.469h20.363c6.858 0 12.469-5.611 12.469-12.469z"/><path d="m275.573 205.989c0-6.858-5.611-12.469-12.469-12.469h-20.363c-6.858 0-12.469 5.611-12.469 12.469s5.611 12.469 12.469 12.469h20.363c6.858 0 12.469-5.611 12.469-12.469z"/><path d="m342.873 205.989c0-6.858-5.611-12.469-12.469-12.469h-20.363c-6.858 0-12.469 5.611-12.469 12.469s5.611 12.469 12.469 12.469h20.363c6.858 0 12.469-5.611 12.469-12.469z"/><path d="m410.173 205.989c0-6.858-5.611-12.469-12.469-12.469h-20.363c-6.858 0-12.469 5.611-12.469 12.469s5.611 12.469 12.469 12.469h20.363c6.858 0 12.469-5.611 12.469-12.469z"/></g><ellipse cx="294.341" cy="118.095" fill="#49b1f7" rx="20.155" ry="20.155" transform="matrix(.876 -.483 .483 .876 -20.431 156.851)"/><g><path d="m334.336 90.722c-3.23 0-6.46-1.232-8.924-3.697-8.051-8.051-18.734-12.486-30.081-12.486-6.969 0-12.62-5.651-12.62-12.62s5.651-12.62 12.62-12.62c18.089 0 35.11 7.061 47.929 19.88 4.928 4.928 4.928 12.919-.001 17.847-2.464 2.463-5.695 3.696-8.923 3.696z" fill="#49b1f7"/></g><g><path d="m350.518 129.725c-6.969 0-12.62-5.651-12.62-12.62 0-11.346-4.434-22.028-12.486-30.08-4.93-4.927-4.93-12.918-.001-17.847 4.927-4.93 12.919-4.931 17.847-.001 12.82 12.818 19.88 29.839 19.88 47.927 0 6.971-5.65 12.621-12.62 12.621z" fill="#73c3f9"/></g><g><path d="m369.724 55.634c-3.239 0-6.476-1.239-8.942-3.715-17.134-17.205-39.901-26.679-64.105-26.679-6.969 0-12.62-5.651-12.62-12.62s5.651-12.62 12.62-12.62c30.966 0 60.084 12.113 81.99 34.108 4.917 4.938 4.901 12.929-.037 17.848-2.463 2.453-5.684 3.678-8.906 3.678z" fill="#49b1f7"/></g><g><path d="m399.818 128.38c-6.969 0-12.62-5.651-12.62-12.62 0-24.065-9.381-46.737-26.414-63.84-4.919-4.938-4.903-12.928.036-17.847 4.937-4.919 12.929-4.904 17.847.036 21.778 21.866 33.772 50.863 33.772 81.651-.002 6.969-5.652 12.62-12.621 12.62z" fill="#73c3f9"/></g></g></svg>