<svg id="Capa_1" enable-background="new 0 0 512 512" height="512" viewBox="0 0 512 512" width="512" xmlns="http://www.w3.org/2000/svg"><g><g><path d="m158.552 94.119h-11.609l-39.358 23.313-18.052 44.389v47.052l26.338 39.95 21.603 12.429 21.079 2.798c37.496-10.075 65.105-44.289 65.105-84.966s-27.61-74.89-65.106-84.965z" fill="#ffe07d"/><path d="m93.447 179.084c0-40.677 27.609-74.89 65.105-84.966-7.299-1.961-14.966-3.024-22.885-3.024-48.595 0-87.99 39.394-87.99 87.99 0 48.595 39.395 87.99 87.99 87.99 7.919 0 15.586-1.063 22.885-3.024-37.496-10.075-65.105-44.289-65.105-84.966z" fill="#ffd064"/></g><path d="m143.393 171.883v-34.52c6.921 2.702 11.778 8.91 11.778 16.126 0 4.267 3.459 7.726 7.726 7.726s7.726-3.459 7.726-7.726c0-15.701-11.662-28.868-27.23-32.201v-1.469c0-4.267-3.459-7.726-7.726-7.726s-7.726 3.459-7.726 7.726v1.469c-15.568 3.333-27.23 16.5-27.23 32.201s11.662 28.868 27.23 32.2v34.52c-6.921-2.702-11.777-8.91-11.777-16.126 0-4.267-3.459-7.726-7.726-7.726s-7.726 3.459-7.726 7.726c0 15.701 11.662 28.868 27.23 32.201v1.469c0 4.267 3.459 7.726 7.726 7.726s7.726-3.459 7.726-7.726v-1.469c15.568-3.333 27.23-16.5 27.23-32.201s-11.663-28.867-27.231-32.2zm-27.23-18.393c0-7.216 4.857-13.425 11.777-16.126v32.252c-6.92-2.702-11.777-8.91-11.777-16.126zm27.23 66.72v-32.253c6.921 2.702 11.778 8.91 11.778 16.126s-4.858 13.426-11.778 16.127z" fill="#ebb044"/><path d="m411.024 35.443h-174.324v310.006l66.498-.952 16.678 27.722h24.529l63.871-27.035 11.691-12.379v-290.88z" fill="#ecf4ff"/><g><path d="m239.269 336.205v-294.28l15.603-6.482h-38.387l-15.603 6.482v294.28l6.32 9.666 38.032-.544z" fill="#cbe2ff"/></g><path d="m422.537 0h-192.226l-6.654 5.096v30.347l6.926 6.482h191.955c6.065 0 10.983-4.917 10.983-10.983v-19.959c-.001-6.066-4.918-10.983-10.984-10.983z" fill="#80b4fb"/><path d="m225.717 30.942v-19.959c0-6.066 4.917-10.983 10.983-10.983h-38.387c-6.066 0-10.983 4.917-10.983 10.983v19.959c0 6.066 4.917 10.983 10.983 10.983h38.387c-6.066 0-10.983-4.917-10.983-10.983z" fill="#5490f9"/><path d="m348.39 267.02h-37.965l-5.854 4.678v75.082l15.304 25.439h24.529l12.255-5.187v-91.742c.001-4.568-3.701-8.27-8.269-8.27z" fill="#9dc6fb"/><g><path d="m244.699 103.183c-4.267 0-7.726-3.459-7.726-7.726v-7.861c0-4.267 3.459-7.726 7.726-7.726s7.726 3.459 7.726 7.726v7.861c0 4.267-3.459 7.726-7.726 7.726z" fill="#7b6c79"/></g><g><path d="m288.516 103.183c-4.267 0-7.726-3.459-7.726-7.726v-7.861c0-4.267 3.459-7.726 7.726-7.726s7.726 3.459 7.726 7.726v7.861c.001 4.267-3.458 7.726-7.726 7.726z" fill="#7b6c79"/></g><g><path d="m332.333 103.183c-4.267 0-7.726-3.459-7.726-7.726v-7.861c0-4.267 3.459-7.726 7.726-7.726s7.726 3.459 7.726 7.726v7.861c.001 4.267-3.459 7.726-7.726 7.726z" fill="#7b6c79"/></g><g><path d="m376.15 103.183c-4.267 0-7.726-3.459-7.726-7.726v-7.861c0-4.267 3.459-7.726 7.726-7.726s7.726 3.459 7.726 7.726v7.861c.001 4.267-3.459 7.726-7.726 7.726z" fill="#7b6c79"/></g><g><path d="m244.699 146.718c-4.267 0-7.726-3.459-7.726-7.726v-7.861c0-4.267 3.459-7.726 7.726-7.726s7.726 3.459 7.726 7.726v7.861c0 4.267-3.459 7.726-7.726 7.726z" fill="#7b6c79"/></g><g><path d="m288.516 146.718c-4.267 0-7.726-3.459-7.726-7.726v-7.861c0-4.267 3.459-7.726 7.726-7.726s7.726 3.459 7.726 7.726v7.861c.001 4.267-3.458 7.726-7.726 7.726z" fill="#7b6c79"/></g><g><path d="m332.333 146.718c-4.267 0-7.726-3.459-7.726-7.726v-7.861c0-4.267 3.459-7.726 7.726-7.726s7.726 3.459 7.726 7.726v7.861c.001 4.267-3.459 7.726-7.726 7.726z" fill="#7b6c79"/></g><g><path d="m376.15 146.718c-4.267 0-7.726-3.459-7.726-7.726v-7.861c0-4.267 3.459-7.726 7.726-7.726s7.726 3.459 7.726 7.726v7.861c.001 4.267-3.459 7.726-7.726 7.726z" fill="#7b6c79"/></g><g><path d="m244.699 190.253c-4.267 0-7.726-3.459-7.726-7.726v-7.861c0-4.267 3.459-7.726 7.726-7.726s7.726 3.459 7.726 7.726v7.861c0 4.267-3.459 7.726-7.726 7.726z" fill="#7b6c79"/></g><g><path d="m288.516 190.253c-4.267 0-7.726-3.459-7.726-7.726v-7.861c0-4.267 3.459-7.726 7.726-7.726s7.726 3.459 7.726 7.726v7.861c.001 4.267-3.458 7.726-7.726 7.726z" fill="#7b6c79"/></g><g><path d="m332.333 190.253c-4.267 0-7.726-3.459-7.726-7.726v-7.861c0-4.267 3.459-7.726 7.726-7.726s7.726 3.459 7.726 7.726v7.861c.001 4.267-3.459 7.726-7.726 7.726z" fill="#7b6c79"/></g><g><path d="m376.15 190.253c-4.267 0-7.726-3.459-7.726-7.726v-7.861c0-4.267 3.459-7.726 7.726-7.726s7.726 3.459 7.726 7.726v7.861c.001 4.267-3.459 7.726-7.726 7.726z" fill="#7b6c79"/></g><g><path d="m244.699 233.788c-4.267 0-7.726-3.459-7.726-7.726v-7.861c0-4.267 3.459-7.726 7.726-7.726s7.726 3.459 7.726 7.726v7.861c0 4.267-3.459 7.726-7.726 7.726z" fill="#7b6c79"/></g><g><path d="m288.516 233.788c-4.267 0-7.726-3.459-7.726-7.726v-7.861c0-4.267 3.459-7.726 7.726-7.726s7.726 3.459 7.726 7.726v7.861c.001 4.267-3.458 7.726-7.726 7.726z" fill="#7b6c79"/></g><g><path d="m332.333 233.788c-4.267 0-7.726-3.459-7.726-7.726v-7.861c0-4.267 3.459-7.726 7.726-7.726s7.726 3.459 7.726 7.726v7.861c.001 4.267-3.459 7.726-7.726 7.726z" fill="#7b6c79"/></g><g><path d="m376.15 233.788c-4.267 0-7.726-3.459-7.726-7.726v-7.861c0-4.267 3.459-7.726 7.726-7.726s7.726 3.459 7.726 7.726v7.861c.001 4.267-3.459 7.726-7.726 7.726z" fill="#7b6c79"/></g><path d="m310.425 267.02h-37.966c-4.567 0-8.27 3.703-8.27 8.27v69.766l39.009-.558 7.227 12.013z" fill="#80b4fb"/><g><path d="m461.273 334.941c-11.048-17.816-30.796-6.674-32.464-5.834l-85.116 35.6s4.095-18.346-14.931-23.637c-24.198-6.732-38.635-10.953-48.416-13.436h-7.418l-24.872 4.869-40.854 24.942-31.774 39.101 3.949 6.181 37.107 22.321 8.202 1.362c10.521-5.382 23.604-5.819 35.971-2.381l42.251 11.754c7.396 1.68 24.187 3.722 40.23-6.838.008-.004.014-.008.014-.008 4.465-2.586 103.89-60.17 108.356-62.756 3.255-2.145 19.454-14.431 9.765-31.24z" fill="#ffcebe"/><g><path d="m184.888 401.201c-3.075-1.948-3.949-6.106-1.76-9.169 14.679-20.537 33.434-37.924 55.312-50.722 14.208-8.312 21.748-10.943 41.906-13.676-11.531-2.928-16.589-3.44-23.521-2.796l-.002-.002c-39.518 4.438-46.645 5.54-65.333 16.474-22.945 13.422-42.456 31.892-57.431 53.751l2.222 5.09 66.962 42.413h5.498l.587-1.083c3.753-6.925 9.103-11.872 15.359-15.073z" fill="#ffb1a0"/></g><path d="m212.375 444.876-53.078-33.761-5.889-1.691-4.893 3.992-14.682 27.897 63.745 40.739 4.355-1.338 13.425-24.028c2.292-4.106.984-9.287-2.983-11.81z" fill="#ecf4ff"/><path d="m149.797 416.213c2.055-3.447 5.768-5.272 9.5-5.098l-28.999-18.446c-4.218-2.683-9.818-1.352-12.378 2.942l-13.685 22.959 1.999 5.104 28.325 18.103z" fill="#cbe2ff"/><path d="m204.607 482.414-73.045-46.462-4.249 1.193-40.05 69.888-1.202 3.606 1.839 1.361h99.313c3.89 0 7.472-2.113 9.354-5.517l9.702-17.547c1.257-2.272.528-5.129-1.662-6.522z" fill="#bd7b62"/><path d="m88.693 508.504 40.879-69.308c.838-1.42 2.382-2.138 3.915-2.02l-29.81-18.962c-2.344-1.491-5.457-.743-6.868 1.649l-48.156 81.647c-2.736 4.638.606 10.49 5.99 10.49h33.257c-.102-1.156.128-2.368.793-3.496z" fill="#ad6a50"/><path d="m358.974 367.215 2.082-9.771-17.363 7.262c-.208.724-.769 2.393-1.866 3.888-1.2 1.635-3.165 3.433-7.766 2.824-15.395-2.04-52.052-6.751-52.421-6.798-4.237-.544-8.105 2.447-8.648 6.679-.544 4.232 2.446 8.105 6.679 8.648.368.047 36.995 4.755 52.361 6.79 1.308.174 2.565.256 3.775.256 14.214.001 21.593-11.382 23.167-19.778z" fill="#ffb1a0"/></g></g></svg>